<?xml version="1.0" encoding="iso-8859-1"?>
<!-- Uploaded to: SVG Repo, www.svgrepo.com, Generator: SVG Repo Mixer Tools -->
<svg height="800px" width="800px" version="1.1" id="Layer_1" xmlns="http://www.w3.org/2000/svg" xmlns:xlink="http://www.w3.org/1999/xlink" 
	 viewBox="0 0 511.994 511.994" xml:space="preserve">
<circle style="fill:#9EA7DB;" cx="255.997" cy="255.997" r="255.997"/>
<path style="fill:#8C95C9;" d="M504.635,317.12c-22.837,93.208-96.696,166.377-190.294,188.194L98.98,289.954l32.024-53.83
	l166.588-126.046L504.635,317.12z"/>
<path style="fill:#FAD55C;" d="M125.517,103.749h161.747c6.385,0,11.611,5.22,11.611,11.611v107.003
	c0,6.385-5.226,11.611-11.611,11.611H141.763L98.98,289.954l24.018-56.259c-5.187-1.159-9.092-5.805-9.092-11.332V115.36
	C113.906,108.97,119.132,103.749,125.517,103.749z"/>
<path style="fill:#E3C04D;" d="M292.456,104.981c3.933,1.866,6.418,5.198,6.418,9.822v107.009c0,6.385-5.226,12.162-11.611,12.162
	H141.763L98.98,289.954l42.175-62.672h140.297c6.385,0,11.611-5.22,11.611-11.611V108.669
	C293.063,107.126,293.008,106.329,292.456,104.981z"/>
<path style="fill:#88EB92;" d="M386.478,222.046H224.731c-6.385,0-11.611,5.22-11.611,11.611v107.003
	c0,6.385,5.226,11.611,11.611,11.611h145.501l42.782,55.981l-24.018-56.259c5.187-1.159,9.092-5.805,9.092-11.332V233.656
	C398.089,227.266,392.868,222.046,386.478,222.046z"/>
<path style="fill:#73D17C;" d="M219.789,222.603c-3.933,1.861-6.669,5.872-6.669,10.496v107.56c0,6.385,5.226,11.611,11.611,11.611
	h145.501l42.782,55.981l-36.966-62.115H230.542c-9.048,0-11.605-3.599-11.605-12.168V226.965
	C218.937,225.422,219.238,223.951,219.789,222.603z"/>
<path style="fill:#FF8C8A;" d="M266.677,277.207c0-7.505-6.084-13.588-13.588-13.588c-7.505,0-13.594,6.084-13.594,13.588
	c0,18.101,20.614,26.202,27.183,37.612c6.569-11.41,27.177-19.511,27.177-37.612c0-7.505-6.084-13.588-13.589-13.588
	C272.761,263.619,266.677,269.703,266.677,277.207z"/>
<g>
	<path style="fill:#FA7876;" d="M264.928,312.24c0.652,0.847,1.242,1.705,1.749,2.58c6.569-11.41,27.177-19.511,27.177-37.612
		c0-7.505-6.084-13.588-13.589-13.588c-0.591,0-1.176,0.039-1.749,0.111c6.68,0.858,11.839,6.563,11.839,13.477
		C290.356,293.916,272.795,302.106,264.928,312.24z"/>
	<path style="fill:#FA7876;" d="M266.689,276.555c-0.847-9.572-8.524-12.937-13.6-12.937c-0.596,0-1.181,0.039-1.749,0.111
		c6.68,0.858,13.605,12.58,13.605,19.494C264.945,280.801,265.58,278.528,266.689,276.555z"/>
</g>
<path style="fill:#FF8C8A;" d="M247.362,156.967c0-7.505-6.089-13.588-13.588-13.588c-7.51,0-13.594,6.084-13.594,13.588
	c0,18.101,20.614,26.202,27.183,37.612c6.569-11.41,27.177-19.511,27.177-37.612c0-7.505-6.084-13.588-13.588-13.588
	C253.446,143.378,247.362,149.462,247.362,156.967z"/>
<g>
	<path style="fill:#FA7876;" d="M245.612,192.005c0.652,0.841,1.242,1.699,1.749,2.574c6.569-11.41,27.177-19.511,27.177-37.612
		c0-7.505-6.084-13.588-13.588-13.588c-0.596,0-1.176,0.039-1.749,0.111c6.68,0.858,11.839,6.563,11.839,13.477
		C271.04,173.675,253.479,181.865,245.612,192.005z"/>
	<path style="fill:#FA7876;" d="M247.373,156.315c-0.847-9.572-8.524-12.937-13.6-12.937c-0.596,0-1.181,0.039-1.749,0.111
		c6.674,0.858,13.605,12.586,13.605,19.494C245.629,160.56,246.264,158.287,247.373,156.315z"/>
</g>
<g>
	<polygon style="fill:#FFFFFF;" points="204.903,150.588 136.152,150.588 136.152,156.125 204.903,156.125 	"/>
	<polygon style="fill:#FFFFFF;" points="204.903,166.21 136.152,166.21 136.152,171.747 204.903,171.747 	"/>
	<polygon style="fill:#FFFFFF;" points="204.903,181.832 159.346,181.832 159.346,187.37 204.903,187.37 	"/>
	<polygon style="fill:#FFFFFF;" points="304.212,270.828 372.962,270.828 372.962,276.366 304.212,276.366 	"/>
	<polygon style="fill:#FFFFFF;" points="304.212,286.45 372.962,286.45 372.962,291.988 304.212,291.988 	"/>
	<polygon style="fill:#FFFFFF;" points="304.212,302.072 349.768,302.072 349.768,307.604 304.212,307.604 	"/>
</g>
</svg>